<?xml version="1.0" encoding="UTF-8"?>
<svg width="24px" height="24px" viewBox="0 0 24 24" version="1.1" xmlns="http://www.w3.org/2000/svg" xmlns:xlink="http://www.w3.org/1999/xlink">
    <g id="Icons/Digital/Add" stroke-width="2">
        <g id="Atmos/Icons/Digital/add">
            <path d="M13,11 L23,11 C23.5522847,11 24,11.4477153 24,12 C24,12.5522847 23.5522847,13 23,13 L13,13 L13,23 C13,23.5522847 12.5522847,24 12,24 C11.4477153,24 11,23.5522847 11,23 L11,13 L1,13 C0.44771525,13 -5.86197757e-14,12.5522847 -5.86197757e-14,12 C-5.86197757e-14,11.4477153 0.44771525,11 1,11 L11,11 L11,1 C11,0.44771525 11.4477153,-5.86197757e-14 12,-5.86197757e-14 C12.5522847,-5.86197757e-14 13,0.44771525 13,1 L13,11 Z" id="Path"></path>
        </g>
    </g>
</svg>