<?xml version="1.0" encoding="UTF-8"?>
<svg width="21px" height="18px" viewBox="0 0 21 18" version="1.1" xmlns="http://www.w3.org/2000/svg" xmlns:xlink="http://www.w3.org/1999/xlink">
    <!-- Generator: Sketch 62 (91390) - https://sketch.com -->
    <title>Alert</title>
    <desc>Created with Sketch.</desc>
    <defs>
        <path d="M482.934152,182.943377 C482.770607,182.65723 482.264463,182 481.288414,182 C480.312365,182 479.890565,182.505561 479.633419,182.943377 L471.249412,197.194135 C470.495333,198.600656 471.568278,200 472.903379,200 L489.663163,200 C490.467849,200 492.215094,199.043718 491.318158,197.194135 L482.934152,182.943377 Z M482.130803,193.685268 L480.496875,193.685268 L480.155357,187.142857 L482.472321,187.142857 L482.130803,193.685268 Z M480.128571,195.975446 C480.128571,195.600444 480.229017,195.316965 480.429911,195.125 C480.630804,194.933035 480.923212,194.837053 481.307143,194.837053 C481.67768,194.837053 481.964508,194.935267 482.167634,195.131696 C482.37076,195.328126 482.472321,195.609373 482.472321,195.975446 C482.472321,196.328127 482.369644,196.606026 482.164286,196.809152 C481.958927,197.012278 481.673216,197.113839 481.307143,197.113839 C480.932141,197.113839 480.641965,197.01451 480.436607,196.815848 C480.231249,196.617186 480.128571,196.337053 480.128571,195.975446 Z" id="path-1"></path>
    </defs>
    <g id="Icons" fill-rule="evenodd">
        <g transform="translate(-471.000000, -182.000000)">
            <mask id="mask-2">
                <use xlink:href="#path-1"></use>
            </mask>
            <use id="Alert" xlink:href="#path-1"></use>
        </g>
    </g>
</svg>
