<?xml version="1.0" encoding="UTF-8"?>
<svg width="10px" height="10px" viewBox="0 0 24 24" version="1.1" xmlns="http://www.w3.org/2000/svg" xmlns:xlink="http://www.w3.org/1999/xlink">
    <!-- Generator: Sketch 55.1 (78136) - https://sketchapp.com -->
    <title>Icons/Digital/Arrow_down</title>
    <desc>Created with Sketch.</desc>
    <g id="Icons/Digital/Arrow_down" stroke="none" stroke-width="1" fill-rule="evenodd">
        <g id="Atmos/Icons/Digital/arrow_down" transform="translate(2.000000, 0.000000)"  fill-rule="nonzero">
            <path d="M10,21.6267538 L17.8146382,14.2718029 C18.2168119,13.8932864 18.8496864,13.9124644 19.2282029,14.3146382 C19.6067193,14.7168119 19.5875413,15.3496864 19.1853676,15.7282029 L10.6853676,23.7282029 C10.3003176,24.0906029 9.69968818,24.0906029 9.31463817,23.7282029 L0.814638174,15.7282029 C0.412464423,15.3496864 0.393286409,14.7168119 0.77180288,14.3146382 C1.15031935,13.9124644 1.78319382,13.8932864 2.18536757,14.2718029 L10,21.6267538 Z M9.00000001,1 C9.00000001,0.44771525 9.44771526,-1.70530257e-13 10,-1.70530257e-13 C10.5522848,-1.70530257e-13 11,0.44771525 11,1 L11,23 C11,23.5522847 10.5522848,24 10,24 C9.44771526,24 9.00000001,23.5522847 9.00000001,23 L9.00000001,1 Z" id="Shape"></path>
        </g>
    </g>
</svg>