<?xml version="1.0" encoding="UTF-8"?>
<svg width="15px" height="14px" viewBox="0 0 15 14" version="1.1" xmlns="http://www.w3.org/2000/svg" xmlns:xlink="http://www.w3.org/1999/xlink">
    <!-- Generator: sketchtool 63.1 (101010) - https://sketch.com -->
    <title>20AF7827-9CF7-4591-A084-2FBB7337BD78</title>
    <desc>Created with sketchtool.</desc>
    <g id="Traveler-Card" stroke="none" stroke-width="1" fill="none" fill-rule="evenodd">
        <g id="Membership-Benefits---Single-Passenger-R1A" transform="translate(-79.000000, -297.000000)" fill="#333333" fill-rule="nonzero">
            <path d="M85,297 L88,297 C88.8284271,297 89.5,297.659791 89.5,298.473684 L89.5,299.947368 L92.5,299.947368 C93.3284271,299.947368 94,300.607159 94,301.421053 L94,309.526316 C94,310.340209 93.3284271,311 92.5,311 L80.5,311 C79.6675,311 79,310.336842 79,309.526316 L79,301.421053 C79,300.603158 79.6675,299.947368 80.5,299.947368 L83.5,299.947368 L83.5,298.473684 C83.5,297.655789 84.1675,297 85,297 M88,300 L88,299 L85,299 L85,300 L88,300 Z" id="Shape"/>
        </g>
    </g>
</svg>