<svg width="24px" height="23px" viewBox="0 0 24 23" version="1.1" xmlns="http://www.w3.org/2000/svg" xmlns:xlink="http://www.w3.org/1999/xlink">
    <path d="M14,0 C14.5522847,-1.01453063e-16 15,0.44771525 15,1 C15,1.55228475 14.5522847,2 14,2 L2,2 L2,21 L14,21 C14.5522847,21 15,21.4477153 15,22 C15,22.5522847 14.5522847,23 14,23 L1,23 C0.44771525,23 6.76353751e-17,22.5522847 0,22 L0,1 C-6.76353751e-17,0.44771525 0.44771525,1.01453063e-16 1,0 L14,0 Z M17.5664853,5.66699039 L23.2246704,11.3251755 L23.233816,11.3343211 C23.6014603,11.7019654 23.6020938,12.2974011 23.235231,12.6642639 L17.5704047,18.3290903 C17.2035418,18.6959531 16.6081061,18.6953196 16.2404618,18.3276753 C15.8728175,17.960031 15.872184,17.3645953 16.2390468,16.9977325 L20.3052751,12.9315042 L5.43310175,12.9418269 C4.91372853,12.9421874 4.49150519,12.5214429 4.49003953,12.0020677 C4.48857387,11.4826926 4.9084209,11.0613636 5.42779411,11.0610031 L20.2931243,11.0506851 L16.2379575,6.99551825 C15.8703131,6.62787394 15.8696796,6.03243824 16.2365425,5.6655754 C16.6034053,5.29871256 17.198841,5.29934607 17.5664853,5.66699039 Z" id="Logout"></path>
</svg>