<?xml version="1.0" encoding="UTF-8"?>
<svg width="20px" height="20px" viewBox="0 0 20 20" version="1.1" xmlns="http://www.w3.org/2000/svg" xmlns:xlink="http://www.w3.org/1999/xlink">
    <!-- Generator: Sketch 63.1 (92452) - https://sketch.com -->
    <desc>Created with Sketch.</desc>
    <g id="Page-1" stroke="none" stroke-width="1" fill="none" fill-rule="evenodd">
        <g id="Icon-/-Move" transform="translate(-2.000000, -2.000000)" fill="currentcolor" stroke="currentcolor" stroke-width="0.4">
            <path d="M11.9702325,14.5800527 C11.5772175,14.602535 11.2770441,14.9393533 11.2995258,15.3323773 C11.299734,15.3350835 11.2999422,15.338206 11.3001503,15.3411204 L11.3001503,18.5742009 L10.2984619,17.5658278 C10.0182722,17.2891706 9.56676304,17.2920849 9.29011218,17.5722811 C9.01325315,17.852269 9.01616746,18.3037887 9.29635712,18.5804459 C9.29635712,18.5804459 9.29656528,18.5806541 9.29656528,18.5806541 L11.4562739,20.7404126 C11.4583555,20.7449924 11.4606453,20.7491558 11.462727,20.7535273 C11.4772985,20.7670583 11.4927027,20.780173 11.508315,20.792455 C11.5103967,20.7947449 11.5124783,20.7968266 11.5147681,20.7991164 C11.5251764,20.8101494 11.5360009,20.8209742 11.5472418,20.8315909 C11.5493235,20.8357543 11.5514051,20.840334 11.5536949,20.8444974 C11.5726379,20.856363 11.5922054,20.8671879 11.6121892,20.87718 C11.614479,20.8792617 11.6165607,20.8813434 11.6188505,20.8836333 C11.6230138,20.8859231 11.6273852,20.8877966 11.6317567,20.8900865 C11.63592,20.8944581 11.6402914,20.8986215 11.6448711,20.902993 C11.651116,20.9073646 11.6577773,20.9117361 11.6642304,20.9158995 C11.6708916,20.9181894 11.6773447,20.9202711 11.684006,20.9223528 C11.702949,20.9340103 11.7225165,20.9450433 11.7425003,20.9550354 L11.7489534,20.9550354 C11.7639413,20.9596151 11.7791373,20.9639867 11.7943333,20.9677337 C11.7987048,20.9700236 11.8030762,20.9721053 11.8072395,20.974187 L11.8270151,20.974187 C11.8355499,20.9764768 11.8442928,20.9787667 11.8530357,20.9806402 C11.8592807,20.9829301 11.8659419,20.9850118 11.8723951,20.9870935 L11.8790563,20.9870935 L11.8853013,20.9870935 C11.9069504,20.990216 11.9285995,20.9922977 11.9504568,20.9935467 L11.963363,20.9935467 C11.9827223,20.9964611 12.0022898,20.9985428 12.0218573,21 C12.0262287,20.9979183 12.0306002,20.9958366 12.0349717,20.9935467 C12.0524575,20.9941713 12.0697352,20.9941713 12.0870128,20.9935467 L12.1065803,20.9935467 C12.1240662,20.9900079 12.1413438,20.9856363 12.1586215,20.9806402 C12.1629929,20.9808484 12.1671562,20.9808484 12.1715277,20.9806402 C12.1913033,20.9750197 12.2108708,20.9683582 12.2302301,20.9610723 L12.2364751,20.9610723 C12.2518793,20.9552436 12.2670753,20.9485821 12.2820631,20.9415044 C12.2908061,20.9394227 12.299549,20.9375492 12.3080837,20.9350511 C12.3257777,20.9271407 12.3432636,20.9183976 12.3601249,20.9090299 C12.3644964,20.9069482 12.3688678,20.9046584 12.3732393,20.9025767 C12.3888516,20.8923764 12.4038395,20.8815516 12.4188273,20.8698941 C12.4369377,20.8557385 12.4542153,20.8405422 12.4708685,20.8245131 C12.4910605,20.8103576 12.510628,20.7951612 12.5293628,20.778924 C12.5316526,20.7768423 12.5337342,20.7745524 12.5358159,20.7726789 C12.544767,20.7620623 12.5535099,20.7510293 12.5618365,20.7399963 C12.5684977,20.733543 12.5749509,20.7270898 12.581404,20.7204284 C12.592853,20.7056483 12.6034694,20.690452 12.6138776,20.6748392 L14.7150919,18.5735764 C14.851648,18.4401397 14.9290852,18.2573669 14.9297199,18.0662673 C14.9317914,17.6728269 14.6143402,17.3520377 14.2207008,17.3499561 C14.0273158,17.3489152 13.8418411,17.4267706 13.7067422,17.5652033 L12.71796,18.5475552 L12.71796,15.3469492 C12.7489765,14.9547578 12.4558807,14.6114863 12.0636984,14.5806772 C12.0324737,14.5781792 12.0010408,14.5777629 11.9700243,14.5794282 L11.9702325,14.5800527 Z M17.9938938,9.07001434 C17.6023361,9.10915021 17.316526,9.45825045 17.3558691,9.84981727 C17.3725223,10.0184346 17.4489187,10.1756025 17.5711114,10.2930101 L18.5467792,11.2818152 L15.3462473,11.2818152 C14.9548977,11.241014 14.6045565,11.5253735 14.5637562,11.9167322 C14.5229559,12.3080909 14.8073089,12.6586483 15.1986585,12.6994495 C15.2457037,12.7042374 15.2929571,12.7044456 15.3400023,12.700074 L18.573008,12.700074 L17.5713195,13.7084471 C17.2740604,13.9663691 17.2426275,14.4164315 17.5005435,14.7136976 C17.7586677,15.0107554 18.2087198,15.042189 18.505979,14.784267 C18.5322077,14.7613684 18.5567711,14.7365962 18.5794611,14.7101587 L20.7391697,12.5439469 C20.7435411,12.541657 20.7479126,12.5395753 20.752284,12.5374936 C20.7656066,12.5247953 20.7787209,12.5118888 20.7912108,12.4983578 C20.7957904,12.4941944 20.7999537,12.4898228 20.8043252,12.4854513 C20.8155661,12.4750428 20.8263907,12.4640098 20.8367989,12.4529768 C20.8390887,12.450687 20.8413785,12.4486053 20.843252,12.4465236 C20.8574072,12.4275801 20.8703134,12.4080122 20.882387,12.3880279 C20.8846768,12.3836564 20.8867584,12.3792848 20.8888401,12.3749133 C20.8934197,12.3682518 20.897583,12.3617986 20.9017463,12.3553453 C20.9061177,12.3488921 20.9104892,12.3422307 20.9146525,12.3357774 C20.9169423,12.3314058 20.9190239,12.3270343 20.9213138,12.3226627 L20.9213138,12.3162095 C20.9327628,12.2991396 20.9435874,12.2818615 20.9537874,12.2641671 L20.9537874,12.2512606 C20.9606569,12.2362724 20.9673181,12.221076 20.9733549,12.2056715 L20.9733549,12.1925568 L20.9733549,12.1729889 C20.9777264,12.1644539 20.9820978,12.1557108 20.9864693,12.1469677 L20.9864693,12.1340612 L20.9864693,12.1211546 L20.9864693,12.1147014 C20.9916734,12.0932599 20.9960449,12.0716103 20.9993755,12.0497525 L20.9993755,12.0430911 C21.0002082,12.0214415 21.0002082,11.9997918 20.9993755,11.9781422 L20.9993755,11.9652357 C20.9997918,11.9479576 20.9997918,11.9304714 20.9993755,11.9131933 C20.9972939,11.9088218 20.995004,11.9046584 20.9927142,11.9002868 C20.9893836,11.8807189 20.9850121,11.8611509 20.9800162,11.8417912 L20.9800162,11.8286765 C20.9764774,11.8089004 20.9721059,11.7895406 20.9669018,11.7701809 C20.9648202,11.767891 20.9627385,11.7658093 20.9606569,11.7637276 C20.9546201,11.7483231 20.9479588,11.7331267 20.9408812,11.7181385 C20.9390077,11.7093954 20.9369261,11.7006523 20.9346363,11.6921173 C20.9265179,11.6744229 20.9179831,11.6569367 20.9086157,11.6400749 C20.9063259,11.6379932 20.9040361,11.6357034 20.9021626,11.6336217 C20.8919625,11.6157191 20.881138,11.598441 20.8694807,11.5815793 C20.8551174,11.5634686 20.8401295,11.5461905 20.8241008,11.5295369 C20.8095293,11.5114262 20.7945415,11.4941481 20.7785128,11.4774946 C20.7764311,11.473123 20.7741413,11.4687514 20.7720597,11.4643799 C20.7614433,11.4554286 20.7506187,11.4466855 20.7393778,11.4383587 C20.7331329,11.4316973 20.7266798,11.425244 20.7200185,11.4187908 C20.7073205,11.4075496 20.6944142,11.3967248 20.6808835,11.3863163 L18.5732161,9.28505343 C18.4397826,9.14828607 18.257014,9.07105519 18.0659188,9.07043068 C18.0419799,9.06918166 18.0180409,9.06918166 17.9943102,9.07043068 L17.9938938,9.07001434 Z M5.86850931,9.07001434 C5.70010408,9.08687607 5.54335608,9.16306611 5.42615936,9.28484526 L3.32494507,11.3859 C3.31141436,11.3963085 3.29850815,11.4071333 3.28581011,11.4183744 C3.27914884,11.4248277 3.27269573,11.4314891 3.26624263,11.4379424 C3.25292009,11.4462691 3.24001388,11.4550123 3.22731583,11.4639635 C3.22502602,11.4683351 3.22294437,11.4727067 3.22086273,11.4770782 C3.20483405,11.4937318 3.18942986,11.5110099 3.17527466,11.5291206 C3.16153579,11.5459823 3.14842142,11.5632604 3.1361397,11.581163 C3.12469064,11.5980247 3.11386608,11.6155109 3.10366601,11.6332053 C3.09929455,11.635287 3.09513126,11.6375769 3.0907598,11.6396586 C3.0836822,11.6569367 3.07702093,11.6742147 3.07119232,11.691701 C3.06682086,11.7004441 3.0624494,11.708979 3.05828611,11.7177222 C3.05120851,11.7327104 3.04475541,11.7479067 3.03871863,11.7633113 C3.03871863,11.765393 3.03871863,11.7676828 3.03871863,11.7697645 C3.03351451,11.7891243 3.02935122,11.8086922 3.02581242,11.8282602 C3.02352261,11.8326317 3.02144096,11.8370033 3.01935932,11.8413748 C3.01644501,11.8607346 3.01436336,11.8805107 3.01290621,11.8998705 C3.0106164,11.904242 3.00853475,11.9086136 3.00645311,11.912777 C3.00582861,11.9302632 3.00582861,11.9475413 3.00645311,11.9648194 C3.00437146,11.9691909 3.00208165,11.9735625 3,11.977934 C3.00124899,11.9995837 3.00333063,12.0212333 3.00645311,12.0428829 L3.00645311,12.0493362 C3.00770209,12.071194 3.00978374,12.0928436 3.01290621,12.1144932 L3.01290621,12.1209465 C3.01290621,12.1251099 3.01290621,12.1294814 3.01290621,12.133853 C3.01498786,12.1380164 3.01727767,12.1423879 3.01935932,12.1467595 C3.02144096,12.1555026 3.02352261,12.1640376 3.02581242,12.1727807 C3.02581242,12.1792339 3.02581242,12.1856872 3.02581242,12.1923486 C3.02789407,12.1967202 3.02997571,12.2010917 3.03226553,12.2052551 C3.0383023,12.2208678 3.04475541,12.235856 3.05183301,12.2508442 C3.05183301,12.2552158 3.05183301,12.2595874 3.05183301,12.2637508 C3.05974326,12.2814452 3.06848618,12.2989314 3.07785359,12.3157931 C3.07993524,12.318083 3.08222505,12.3201647 3.0843067,12.3222464 L3.0843067,12.3353611 C3.08846999,12.3420225 3.09284145,12.3484757 3.09721291,12.354929 C3.10158436,12.3615904 3.10595582,12.3680437 3.11032728,12.3744969 C3.11240893,12.3788685 3.11449057,12.38324 3.11678039,12.3876116 L3.12323349,12.3876116 C3.1332254,12.4075959 3.14404996,12.4271638 3.15570718,12.4463154 C3.16007864,12.4483971 3.1644501,12.4504788 3.16861339,12.4525605 C3.17922979,12.4638016 3.19005435,12.4746265 3.20129525,12.4852431 C3.20337689,12.4896147 3.20545854,12.493778 3.20774835,12.4981496 C3.22231988,12.5116806 3.2375159,12.5247953 3.25312825,12.5370773 C3.2552099,12.5393672 3.25749971,12.5414489 3.25958136,12.5435306 L5.41928993,14.7099505 C5.69594079,14.9901466 6.14724182,14.9932692 6.42763964,14.7166119 C6.70803747,14.4401628 6.71095178,13.9886432 6.43450908,13.7084471 L6.43409275,13.7080307 L5.4324043,12.6996577 L8.65895686,12.6996577 C9.05072279,12.73692 9.39856598,12.4494379 9.43561929,12.057663 C9.47288077,11.665888 9.18540534,11.3180367 8.79363941,11.2807744 C8.74680236,11.2764028 8.69934081,11.276611 8.65250376,11.2816071 L5.45197178,11.2816071 L6.43409275,10.292802 C6.71615589,10.0180182 6.7219845,9.56691493 6.44720712,9.28505343 C6.31398173,9.1480779 6.13100497,9.07043068 5.93970163,9.06980617 C5.91597086,9.06855715 5.89203192,9.06855715 5.86830114,9.06980617 L5.86850931,9.07001434 Z M12.0222736,3.00062451 C12.0027061,3.00187353 11.9831387,3.00416339 11.9637793,3.00707776 L11.9508731,3.00707776 C11.9290158,3.00832678 11.9073667,3.01040847 11.8857176,3.01353102 L11.8792645,3.01353102 L11.8728114,3.01353102 C11.8661501,3.01561271 11.859697,3.01769441 11.8532439,3.01998427 C11.844501,3.02206597 11.8357581,3.02414766 11.8272233,3.02643753 C11.8207702,3.02643753 11.8141089,3.02643753 11.8076558,3.02643753 C11.8032844,3.02851922 11.7991211,3.03080909 11.7947496,3.03289078 C11.7793454,3.0389277 11.7641494,3.04538095 11.7491616,3.05245871 L11.7427085,3.05245871 C11.7229328,3.06036915 11.7033653,3.0689041 11.6842142,3.0784799 L11.6842142,3.08493315 L11.6646467,3.08493315 C11.6579854,3.08909654 11.6515323,3.0934681 11.6450792,3.09804783 C11.6407078,3.10221122 11.6363363,3.10658278 11.6319648,3.11095434 C11.6275934,3.11303604 11.6232219,3.11511773 11.6190586,3.1174076 L11.6126055,3.12386085 C11.5926217,3.13385299 11.5730542,3.1446778 11.5541113,3.15633529 C11.5518214,3.16070685 11.5497398,3.16507841 11.5476581,3.1692418 C11.5364173,3.17985844 11.5255927,3.19068326 11.5149763,3.20171624 C11.5128946,3.20400611 11.510813,3.2060878 11.5087314,3.20837767 C11.4929108,3.22065967 11.4777148,3.23377434 11.4631433,3.24730536 C11.4608535,3.25167692 11.4587718,3.25584031 11.4566902,3.26021187 L9.29698161,5.41997039 C9.01679195,5.69662765 9.01366948,6.14793912 9.29011218,6.42834343 C9.56676304,6.70853958 10.0182722,6.71166212 10.2984619,6.43521303 C10.2986701,6.43500486 10.2986701,6.43500486 10.2986701,6.43479669 L11.3005667,5.43308507 L11.3005667,8.65971226 C11.2633052,9.05127909 11.5505725,9.39913031 11.9423384,9.43660082 C12.3343125,9.47386316 12.6819475,9.18638109 12.719209,8.7946061 C12.7237886,8.74755979 12.7235804,8.70009715 12.7185845,8.65305084 L12.7185845,5.45244484 L13.7073667,6.43500486 C13.9821441,6.71686636 14.4334451,6.72248693 14.7150919,6.44791137 C14.8537296,6.31301753 14.931375,6.12753851 14.9303446,5.93394088 C14.9297097,5.74284128 14.8524806,5.56006846 14.7157164,5.42642365 L12.6145021,3.32536892 C12.6043021,3.30975621 12.5936857,3.29455984 12.5820284,3.2797798 C12.5757835,3.27540824 12.5689141,3.27082851 12.562461,3.26666512 C12.5541344,3.25334228 12.5455996,3.24043577 12.5364404,3.22773743 C12.5343587,3.22565573 12.5322771,3.22336587 12.5299873,3.22128417 C12.5112525,3.20504695 12.491685,3.18985058 12.471493,3.17569505 C12.455048,3.159666 12.4375622,3.14446963 12.4194518,3.13010594 C12.4046721,3.11865661 12.3894761,3.1078318 12.3738638,3.09763149 C12.3694923,3.0955498 12.3651209,3.09325993 12.3607494,3.09117824 C12.3436799,3.08389231 12.3261941,3.07743905 12.3087082,3.07161031 C12.3001735,3.06703058 12.2914306,3.06265902 12.2826876,3.05849563 C12.2676998,3.05141787 12.2527119,3.04496461 12.2373077,3.0389277 L12.2306465,3.0389277 C12.2114953,3.03393163 12.1919278,3.02956007 12.1721522,3.02602119 C12.1679889,3.02373132 12.1636174,3.02164963 12.159246,3.01956793 C12.1421765,3.01457186 12.1248988,3.01020031 12.1072048,3.00645325 L12.0876373,3.00645325 C12.0703597,3.00582875 12.0528738,3.00582875 12.0355962,3.00645325 L12.0224818,3 L12.0222736,3.00062451 Z" id="Fill-1"></path>
        </g>
    </g>
</svg>
