<?xml version="1.0" encoding="UTF-8"?>
<svg width="16px" height="19px" viewBox="0 0 16 19" version="1.1" xmlns="http://www.w3.org/2000/svg" xmlns:xlink="http://www.w3.org/1999/xlink">
    <!-- Generator: sketchtool 63.1 (101010) - https://sketch.com -->
    <title>AA96BE2B-E854-4347-BB2A-C1FD9EAFE873</title>
    <desc>Created with sketchtool.</desc>
    <g id="Traveler-Card" stroke="none" stroke-width="1" fill="none" fill-rule="evenodd">
        <g id="Membership-Benefits---Single-Passenger-R1A" transform="translate(-80.000000, -390.000000)" fill="#333333">
            <path d="M82.2331054,401.353564 L82.2331054,399.574196 L80.1204565,399.574196 L80.1204565,398.150131 L82.2331054,398.150131 L82.2331054,392.652427 C82.2331054,391.186562 83.4468163,390 84.9289534,390 L90.1468485,390 C91.62802,390 92.8426966,391.186562 92.8426966,392.652427 L92.8426966,398.150131 L94.9553455,398.150131 L94.9553455,399.578946 L92.8426966,399.578946 L92.8426966,401.353564 L82.2331054,401.353564 Z M82.2808041,409 L82.2808041,406.378924 L83.7291465,406.378924 L83.7291465,409 L82.2808041,409 Z M91.3464623,409 L91.3464623,406.378924 L92.7948047,406.378924 L92.7948047,409 L91.3464623,409 Z M95.0416667,405.185142 L95.0416667,405.215542 L80.0416667,405.215542 L80.0416667,405.185142 C80.0532534,403.728777 81.347106,402.594466 82.827312,402.594466 L92.2560213,402.594466 C93.7352618,402.594466 95.03008,403.728777 95.0416667,405.185142 Z" id="path-1"/>
        </g>
    </g>
</svg>